<svg width="87" height="85" viewBox="0 0 87 85" fill="none" xmlns="http://www.w3.org/2000/svg">
<g id="Frame 12121">
<path id="Vector" d="M0 58.5301C0 48.4292 0 38.33 0 28.2291C0.201415 27.7921 0.343211 27.3152 0.617136 26.9292C1.24555 26.044 2.21395 25.8495 3.23231 25.8479C9.51162 25.8431 15.7893 25.8447 22.0686 25.8431C22.3796 25.8431 22.689 25.8431 23.0483 25.8431C23.0483 25.5512 23.0483 25.3694 23.0483 25.186C23.0999 17.6976 23.145 10.2077 23.2207 2.7194C23.2256 2.2457 23.3303 1.66354 23.6187 1.32541C24.0731 0.795883 24.7241 0.433828 25.2929 0C37.3762 0 49.4595 0 61.5428 0C63.2459 0.590134 63.8179 1.82622 63.8083 3.54718C63.7615 10.7388 63.7728 17.9321 63.7648 25.1238C63.7648 25.3486 63.7938 25.5751 63.8115 25.8399H64.8476C71.0689 25.8399 77.2886 25.8718 83.5099 25.8192C85.1824 25.8048 86.4135 26.2641 87 27.9069V58.6864C86.3087 60.259 85.0745 60.6466 83.4052 60.6259C77.2032 60.5477 71.0012 60.594 64.7992 60.594H63.8453V81.338C65.8273 81.338 67.756 81.338 69.6864 81.338C71.6731 81.338 73.6599 81.3268 75.6466 81.3428C76.7004 81.3507 77.6656 82.0653 77.8042 82.8883C77.9573 83.7942 77.4707 84.4274 76.2831 84.8756C76.2461 84.89 76.2299 84.9569 76.2058 85H9.18291C8.35792 84.555 7.74562 83.9489 7.81974 82.9425C7.89225 81.96 8.70435 81.3779 10.0176 81.3428C11.0069 81.3172 11.9963 81.338 13.005 81.338C13.6737 77.5005 15.4397 74.301 18.1676 71.5449C18.9765 72.4876 19.7193 73.3536 20.4412 74.1926C18.614 76.349 17.0864 78.5293 16.6256 81.271H24.0071C21.0873 71.6805 21.8559 62.6387 27.5777 54.1312C28.4156 54.8665 29.2036 55.53 29.9496 56.2366C30.0527 56.3339 30.0253 56.6768 29.9383 56.8426C29.6209 57.4471 29.2455 58.0213 28.9055 58.6146C27.0911 61.7711 26.1807 65.2018 25.9616 68.7952C25.8585 70.4795 25.8842 72.2037 26.1324 73.8688C26.4708 76.1352 27.0637 78.365 27.5858 80.6011C27.7034 81.1051 28.0257 81.3699 28.667 81.3667C37.9031 81.3364 47.1408 81.3428 56.3769 81.3412C56.6911 81.3412 57.0053 81.3412 57.4162 81.3412C57.3324 80.8451 57.2728 80.4623 57.2035 80.0827C56.7007 77.2788 56.3753 74.4302 55.655 71.6821C54.1371 65.902 52.4034 60.1761 50.7888 54.4199C50.6373 53.8824 50.4134 53.7564 49.8784 53.7133C48.2413 53.5778 46.5913 53.4613 44.9848 53.1455C40.5779 52.2763 36.8863 50.1024 33.8732 46.8183C32.8435 45.6955 31.9009 44.4945 30.9406 43.3557C31.8735 42.3525 32.7195 41.4449 33.4623 40.6459C34.4919 41.9521 35.4216 43.3078 36.527 44.5041C39.8802 48.1278 44.047 49.9795 49.0502 49.9237C51.7089 49.8934 54.3675 49.8886 57.0246 49.9269C60.0539 49.97 62.6078 49.0178 64.4979 46.5966C65.2005 45.6971 65.8256 44.7529 66.069 43.5583C63.6471 44.1994 61.3123 41.9697 60.9417 39.4895H67.2565C67.2146 38.397 66.7296 37.7973 65.7612 37.5229C65.2585 37.381 64.7992 37.0891 64.3126 36.8802C61.5524 35.6919 58.7858 34.5133 56.0337 33.3075C55.8403 33.2229 55.6711 32.9725 55.5938 32.7636C55.2812 31.9039 55.1152 30.9772 54.7059 30.1702C52.7047 26.2163 48.1221 23.7377 43.4283 24.5336C42.9513 24.615 42.5517 24.5703 42.2198 24.0456C41.3626 22.6994 40.4022 21.4171 39.4886 20.106C37.7065 17.5477 35.9276 14.9846 34.0166 12.2365C33.7749 13.1488 33.5896 13.8394 33.4107 14.5316C32.0524 19.7695 31.1758 25.0711 31.2499 30.4988C31.2693 31.9071 31.2612 33.3154 31.2451 34.7254C31.2419 34.9758 31.2161 35.2693 31.0824 35.4654C27.9338 40.1211 24.7579 44.7593 21.6126 49.4181C19.2424 52.9286 16.8947 56.4519 14.5776 59.9959C14.2634 60.4776 13.9428 60.6035 13.4175 60.6004C9.79199 60.5844 6.16813 60.5828 2.54266 60.5972C1.59037 60.6004 0.924898 60.1841 0.470505 59.3882C0.307762 59.1043 0.157909 58.8124 0.00322264 58.5237L0 58.5301ZM56.9843 27.135V4.99062C55.0266 4.72107 54.5303 4.88057 53.5909 6.05924C53.2283 6.5154 52.8739 6.97793 52.4984 7.42612C50.0492 10.3481 47.5952 13.2668 45.1395 16.1904C42.5614 12.664 39.9881 9.14069 37.4052 5.62382C37.2231 5.3766 36.9846 4.99859 36.7526 4.98424C35.6263 4.91725 34.4935 4.95393 33.2222 4.95393C34.247 6.45 35.1542 7.79296 36.0807 9.12315C38.6765 12.8538 41.2852 16.5748 43.8682 20.315C44.1792 20.7647 44.5192 20.9242 45.0573 20.9163C45.7454 20.9051 46.4334 21.0008 47.1214 21.0566C50.3215 21.315 52.9206 22.7824 55.1233 25.0089C55.7533 25.6453 56.306 26.3582 56.9827 27.1366L56.9843 27.135ZM82.3691 47.9029C82.6414 47.3893 82.8911 46.9348 83.1264 46.4722C83.4981 45.7449 83.3047 45.1777 82.5463 44.7704C81.8824 44.4147 81.2154 44.0654 80.4258 43.6492C81.6037 43.0447 82.6253 42.5199 83.7097 41.9633C83.2762 41.1148 82.875 40.3301 82.4529 39.5023C81.3185 40.0494 80.2502 40.5661 79.0659 41.1371V37.5405H76.0027V41.2105C74.8216 40.614 73.7227 40.0605 72.6738 39.531C72.2049 40.4034 71.7779 41.1993 71.3476 42.0016C72.4159 42.5742 73.4311 43.118 74.5703 43.7289C73.6212 44.2122 72.7898 44.6109 71.9906 45.0655C71.7908 45.1787 71.5313 45.5504 71.5877 45.6827C71.9132 46.4387 72.3241 47.1597 72.7221 47.9221C73.8629 47.3255 74.9022 46.7817 76.0608 46.1772V49.7164H79.1384V46.1867C80.255 46.7817 81.2959 47.3351 82.3707 47.9077L82.3691 47.9029Z" fill="#B1B1B1"/>
<path id="Vector_2" d="M49.002 36.9873C47.8806 37.145 47.0098 35.8082 47.0001 34.5494C46.9904 33.2525 47.954 32.0371 48.9868 32.0007C49.985 31.966 51.0137 33.3097 50.9999 34.6327C50.986 35.9764 50.129 36.9873 49.0034 36.989L49.002 36.9873Z" fill="#B1B1B1"/>
<path id="Vector_3" d="M49 17C50.3343 15.3313 51.6261 13.7161 53 12V17H49Z" fill="#B1B1B1"/>
</g>
</svg>
