<svg width="30" height="34" viewBox="0 0 30 34" fill="none" xmlns="http://www.w3.org/2000/svg">
<g id="bars-solid 1">
<path id="Vector" d="M29.4398 6.39934C30.2931 5.51906 30.1572 4.21158 29.1302 3.48016C28.1032 2.74875 26.5778 2.86526 25.7245 3.74554L15.5 14.2637L5.27545 3.74554C4.42215 2.86526 2.89677 2.74875 1.86979 3.48016C0.842803 4.21158 0.706878 5.51906 1.56018 6.39934L12.3511 17.5L1.56018 28.6007C0.706878 29.4809 0.842803 30.7884 1.86979 31.5198C2.89677 32.2513 4.42215 32.1347 5.27545 31.2545L15.5 20.7363L25.7245 31.2545C26.5778 32.1347 28.1032 32.2513 29.1302 31.5198C30.1572 30.7884 30.2931 29.4809 29.4398 28.6007L18.6489 17.5L29.4398 6.39934Z" fill="#5D82A9"/>
</g>
</svg>
