<svg width="67" height="85" viewBox="0 0 67 85" fill="none" xmlns="http://www.w3.org/2000/svg">
<g id="Frame 12122">
<path id="Vector" d="M-0.000976562 30.061C-0.000976562 28.9118 -0.000976562 27.7626 -0.000976562 26.6122C0.14586 25.6983 0.28976 24.7831 0.442469 23.8692C0.877105 21.2567 1.77428 18.7527 3.17363 16.3976C5.12949 13.1077 7.68885 10.18 10.9104 7.66359C13.1849 5.88746 15.69 4.39833 18.4593 3.22697C21.8556 1.7908 25.4443 0.869483 29.2298 0.497507C29.8156 0.440849 30.3971 0.338617 30.9815 0.257324C32.3515 0.257324 33.7229 0.257324 35.0929 0.257324C35.2721 0.299202 35.4468 0.360788 35.6289 0.379263C36.5158 0.467946 37.41 0.519678 38.294 0.628068C42.7593 1.17864 46.8545 2.54338 50.6591 4.56584C53.9629 6.32349 56.9025 8.43094 59.2828 11.0348C61.2048 13.1385 62.845 15.3963 64.0872 17.851C65.5835 20.8084 66.6789 23.8679 66.9124 27.0692C67.1062 29.7272 66.9961 32.3938 66.4058 35.0494C65.6041 38.6534 64.2121 42.064 62.0815 45.2442C59.6087 48.9344 56.4239 52.1517 52.7118 55.04C49.7355 57.3556 46.5227 59.3929 43.2335 61.3648C41.0383 62.6815 38.9268 64.0808 37.2441 65.8778C34.1664 69.164 33.1679 72.7963 34.8139 76.8018C35.6656 78.8736 37.316 80.4342 39.6375 81.4811C41.3775 82.2669 43.2453 82.4579 45.185 82.4221C45.4831 82.416 45.787 82.6463 46.0895 82.767C45.8751 83.0121 45.7239 83.3718 45.4361 83.4814C44.721 83.7561 43.9545 83.9531 43.1895 84.1157C42.0662 84.3547 40.9253 84.5357 39.7917 84.7427H34.3587C34.2853 84.702 34.2178 84.638 34.1385 84.6244C32.7303 84.3855 31.2884 84.2451 29.9169 83.9002C24.8775 82.6352 20.8586 80.0893 17.7251 76.6072C13.6768 72.1078 11.9618 67.0516 13.0675 61.4153C13.6695 58.3472 15.2318 55.6596 17.6928 53.3477C19.5855 51.5703 21.8527 50.1969 24.3665 49.0896C28.1476 47.4231 31.8992 45.7271 35.0034 43.1848C36.7478 41.756 38.2925 40.2213 39.4525 38.4206C41.1367 35.8069 41.9502 33.0195 41.5346 30.0573C41.1543 27.3414 39.7785 24.995 37.109 23.3469C34.4145 21.6841 31.4529 21.2284 28.3546 22.5525C25.4619 23.7891 24.3005 25.9434 24.2461 28.5435C24.2124 30.1521 22.5869 31.5772 21.2051 31.7718C19.1509 32.0613 17.4432 31.1905 16.7237 29.6126C16.2083 28.4832 16.2347 27.3143 16.4932 26.1983C17.4931 21.88 20.2683 18.6012 24.9744 16.5713C28.4647 15.0662 32.1679 14.7471 35.9578 15.5379C39.7476 16.3287 42.8253 18.1085 45.2467 20.6655C48.1614 23.7435 49.6444 27.2798 49.7472 31.1941C49.7795 32.4209 49.5519 33.6637 49.3243 34.8831C48.7678 37.8688 47.4404 40.6278 45.5095 43.1627C42.9927 46.4673 39.6625 49.1291 35.7449 51.2353C33.5585 52.4116 31.2164 53.3846 28.939 54.4389C27.0669 55.3061 25.321 56.2779 23.9231 57.6894C21.2786 60.3622 20.5488 63.4341 21.1787 66.7523C21.6192 69.0716 22.8159 71.1729 24.506 73.0574C24.7175 73.2927 25.02 73.4701 25.4105 73.7755C25.39 73.4959 25.3929 73.4159 25.3768 73.3371C25.0934 71.9699 24.6925 70.6113 24.5618 69.2342C24.4649 68.2156 24.6338 67.1613 24.832 66.1439C25.3591 63.4427 26.8921 61.2035 29.7026 59.7636C31.5791 58.8017 33.6187 58.0589 35.6113 57.262C39.8181 55.5783 43.4567 53.2208 46.8134 50.5578C48.3097 49.3705 49.7061 48.071 50.963 46.7026C52.5283 44.9991 54.0495 43.2427 55.3226 41.3816C57.3886 38.3615 58.6939 35.0925 58.8702 31.5772C58.9568 29.8491 59.0875 28.0927 58.8276 26.388C58.4017 23.5982 57.3298 20.9451 55.7132 18.4521C53.9952 15.8015 51.6678 13.5881 48.9132 11.6913C45.5609 9.38182 41.7461 7.89515 37.4438 7.24727C34.5893 6.8174 31.7465 6.74227 28.9214 7.18076C25.2461 7.75227 21.8307 8.92116 18.7486 10.7293C15.3919 12.6976 12.7709 15.2164 10.8723 18.2464C9.48466 20.4586 8.65063 22.8173 8.33786 25.3226C8.07209 27.4534 8.33493 29.5523 8.51847 31.6647C8.58895 32.485 8.68734 33.3484 8.47002 34.1318C8.12348 35.3758 6.89593 36.3759 5.04726 36.5767C3.60973 36.7331 1.91377 36.0717 1.14582 34.8154C0.602521 33.9273 0.401355 32.9986 0.291228 32.0305C0.216341 31.3727 0.0988722 30.7175 -0.000976562 30.061Z" fill="#B1B1B1"/>
<path id="Vector_2" d="M18.1482 36.4585C18.8471 36.6987 19.3537 36.9032 19.8838 37.051C21.5254 37.5092 23.1832 37.8036 24.9085 37.3441C27.1537 36.7468 28.5148 35.4485 29.0596 33.5702C29.6587 31.5071 28.716 29.7716 26.512 28.6741C25.8028 28.3206 25.7734 27.6284 26.5002 27.132C28.9803 25.4409 32.3429 25.9976 34.2106 27.9671C36.2619 30.1312 36.1533 32.5405 35.2179 35.0014C34.2429 37.5671 32.3737 39.6129 29.9494 41.362C27.2932 43.2785 24.189 44.5151 21.0614 45.7382C17.8618 46.9896 14.8106 48.4295 12.4597 50.7094C10.2895 52.8144 8.8035 55.1904 8.35125 57.99C8.14127 59.2907 8.06198 60.5729 8.34684 61.8699C8.39236 62.0781 8.23084 62.3195 8.16477 62.5449C7.92542 62.439 7.62 62.3811 7.45555 62.2197C5.96369 60.7626 5.01659 59.0604 4.59958 57.1919C4.12823 55.077 4.34115 52.993 5.57017 51.0469C6.48055 49.607 7.79621 48.5009 9.52153 47.7533C11.0795 47.0783 12.7035 46.4994 14.2159 45.7592C16.6387 44.5743 18.3288 42.8708 18.7575 40.4776C18.9411 39.4528 18.8222 38.4096 18.4051 37.4094C18.2994 37.1569 18.2612 36.8859 18.1467 36.4573L18.1482 36.4585Z" fill="#B1B1B1"/>
<path id="Vector_3" d="M9.99308 27.367C9.84918 23.0314 11.4981 19.4545 14.3468 16.278C17.724 12.5114 22.2216 10.0603 27.7236 9.04784C29.4768 8.72513 31.324 8.75593 33.1301 8.64138C33.3357 8.62783 33.5677 8.68572 33.7571 8.76332C34.1462 8.92344 34.5265 9.19072 34.3209 9.56516C34.1888 9.80534 33.7776 10.0505 33.4619 10.0825C32.7145 10.1576 31.9466 10.0689 31.1919 10.1145C28.1582 10.2968 25.2582 10.9188 22.6518 12.254C21.0968 13.0509 19.5918 13.9427 18.1983 14.9243C16.5244 16.1043 15.2895 17.6181 14.1867 19.1996C12.2646 21.9574 11.5099 24.9406 11.7492 28.1135C11.7727 28.4349 11.8476 28.7527 11.8917 29.073C11.9592 29.5681 11.667 29.8576 11.1046 29.9278C10.532 29.9992 10.2706 29.6913 10.137 29.275C10.0929 29.1395 10.0048 29.0064 10.0019 28.871C9.9872 28.276 9.99601 27.6811 9.99601 27.3683L9.99308 27.367Z" fill="#B1B1B1"/>
</g>
</svg>
