<svg width="28" height="28" viewBox="0 0 28 28" fill="none" xmlns="http://www.w3.org/2000/svg">
<path id="Vector" d="M28 19.866C28 24.962 24.962 28 19.866 28H18.2C17.43 28 16.8 27.37 16.8 26.6V18.522C16.8 18.144 17.108 17.822 17.486 17.822L19.95 17.78C20.146 17.766 20.314 17.626 20.356 17.43L20.846 14.756C20.888 14.504 20.692 14.266 20.426 14.266L17.444 14.308C17.052 14.308 16.744 14 16.73 13.622L16.674 10.192C16.674 9.968 16.856 9.77202 17.094 9.77202L20.454 9.716C20.692 9.716 20.874 9.53402 20.874 9.29602L20.818 5.93599C20.818 5.69799 20.636 5.516 20.398 5.516L16.618 5.57202C14.294 5.61402 12.446 7.518 12.488 9.842L12.558 13.692C12.572 14.084 12.264 14.392 11.872 14.406L10.192 14.434C9.954 14.434 9.77202 14.616 9.77202 14.854L9.81401 17.514C9.81401 17.752 9.996 17.934 10.234 17.934L11.914 17.906C12.306 17.906 12.614 18.214 12.628 18.592L12.754 26.572C12.768 27.356 12.138 28 11.354 28H8.134C3.038 28 0 24.962 0 19.852V8.134C0 3.038 3.038 0 8.134 0H19.866C24.962 0 28 3.038 28 8.134V19.866Z" fill="#01C0DA"/>
</svg>
