<svg width="60" height="61" viewBox="0 0 60 61" fill="none" xmlns="http://www.w3.org/2000/svg">
<g id="Logo social">
<rect y="0.5" width="60" height="60" rx="30" fill="white"/>
<path id="Vector" d="M40.6663 34.969C40.6663 38.8517 38.3517 41.1663 34.469 41.1663H33.1997C32.613 41.1663 32.133 40.6863 32.133 40.0997V33.945C32.133 33.657 32.3677 33.4117 32.6557 33.4117L34.533 33.3797C34.6823 33.369 34.8103 33.2624 34.8423 33.113L35.2157 31.0757C35.2477 30.8837 35.0983 30.7023 34.8957 30.7023L32.6237 30.7343C32.325 30.7343 32.0904 30.4997 32.0797 30.2117L32.037 27.5983C32.037 27.4277 32.1757 27.2784 32.357 27.2784L34.917 27.2357C35.0983 27.2357 35.237 27.097 35.237 26.9157L35.1943 24.3557C35.1943 24.1743 35.0557 24.0357 34.8743 24.0357L31.9943 24.0784C30.2237 24.1104 28.8157 25.561 28.8477 27.3317L28.901 30.265C28.9117 30.5637 28.677 30.7983 28.3784 30.809L27.0983 30.8303C26.917 30.8303 26.7784 30.969 26.7784 31.1503L26.8104 33.177C26.8104 33.3584 26.949 33.497 27.1303 33.497L28.4104 33.4757C28.709 33.4757 28.9437 33.7103 28.9543 33.9983L29.0503 40.0784C29.061 40.6757 28.581 41.1663 27.9837 41.1663H25.5303C21.6477 41.1663 19.333 38.8517 19.333 34.9583V26.0303C19.333 22.1477 21.6477 19.833 25.5303 19.833H34.469C38.3517 19.833 40.6663 22.1477 40.6663 26.0303V34.969Z" fill="#80D0F4"/>
</g>
</svg>
