<svg width="80" height="80" viewBox="0 0 80 80" fill="none" xmlns="http://www.w3.org/2000/svg">
<g id="Logo social">
<rect width="80" height="80" rx="40" fill="#5AB8E7"/>
<rect width="80" height="80" rx="40" fill="black" fill-opacity="0.5"/>
<path id="Vector" d="M54.2218 45.9587C54.2218 51.1356 51.1356 54.2218 45.9587 54.2218H44.2662C43.484 54.2218 42.844 53.5818 42.844 52.7996V44.5934C42.844 44.2094 43.1569 43.8822 43.5409 43.8822L46.044 43.8396C46.2431 43.8254 46.4138 43.6831 46.4565 43.484L46.9543 40.7676C46.9969 40.5116 46.7978 40.2698 46.5276 40.2698L43.4982 40.3125C43.1 40.3125 42.7871 39.9996 42.7729 39.6156L42.716 36.1311C42.716 35.9036 42.9009 35.7045 43.1427 35.7045L46.556 35.6476C46.7978 35.6476 46.9827 35.4627 46.9827 35.2209L46.9258 31.8076C46.9258 31.5658 46.7409 31.3809 46.4991 31.3809L42.6591 31.4378C40.2982 31.4805 38.4209 33.4147 38.4636 35.7756L38.5347 39.6867C38.5489 40.0849 38.236 40.3978 37.8378 40.412L36.1311 40.4405C35.8893 40.4405 35.7045 40.6253 35.7045 40.8671L35.7471 43.5694C35.7471 43.8111 35.932 43.996 36.1738 43.996L37.8805 43.9676C38.2787 43.9676 38.5915 44.2805 38.6058 44.6645L38.7338 52.7711C38.748 53.5676 38.108 54.2218 37.3115 54.2218H34.0405C28.8636 54.2218 25.7773 51.1356 25.7773 45.9444V34.0405C25.7773 28.8636 28.8636 25.7773 34.0405 25.7773H45.9587C51.1356 25.7773 54.2218 28.8636 54.2218 34.0405V45.9587Z" fill="#01C0DA"/>
</g>
</svg>
