<svg width="80" height="80" viewBox="0 0 80 80" fill="none" xmlns="http://www.w3.org/2000/svg">
<g id="Logo social">
<rect width="80" height="80" rx="40" fill="#5AB8E7"/>
<rect width="80" height="80" rx="40" fill="black" fill-opacity="0.5"/>
<path id="Vector" d="M45.6088 26.667H34.4243C29.5661 26.667 26.6699 29.5603 26.6699 34.4137V45.5737C26.6699 50.4403 29.5661 53.3337 34.4243 53.3337H45.5954C50.4536 53.3337 53.3498 50.4403 53.3498 45.587V34.4137C53.3632 29.5603 50.467 26.667 45.6088 26.667ZM40.0166 45.1737C37.1604 45.1737 34.8381 42.8537 34.8381 40.0003C34.8381 37.147 37.1604 34.827 40.0166 34.827C42.8727 34.827 45.195 37.147 45.195 40.0003C45.195 42.8537 42.8727 45.1737 40.0166 45.1737ZM47.9178 33.1737C47.851 33.3337 47.7576 33.4803 47.6375 33.6137C47.504 33.7337 47.3572 33.827 47.197 33.8937C47.0369 33.9603 46.8634 34.0003 46.6899 34.0003C46.3295 34.0003 45.9958 33.867 45.7423 33.6137C45.6221 33.4803 45.5287 33.3337 45.462 33.1737C45.3952 33.0137 45.3552 32.8403 45.3552 32.667C45.3552 32.4937 45.3952 32.3203 45.462 32.1603C45.5287 31.987 45.6221 31.8537 45.7423 31.7203C46.0492 31.4137 46.5164 31.267 46.9435 31.3603C47.0369 31.3737 47.117 31.4003 47.197 31.4403C47.2771 31.467 47.3572 31.507 47.4373 31.5603C47.504 31.6003 47.5707 31.667 47.6375 31.7203C47.7576 31.8537 47.851 31.987 47.9178 32.1603C47.9845 32.3203 48.0245 32.4937 48.0245 32.667C48.0245 32.8403 47.9845 33.0137 47.9178 33.1737Z" fill="#01C0DA"/>
</g>
</svg>
