<svg width="60" height="61" viewBox="0 0 60 61" fill="none" xmlns="http://www.w3.org/2000/svg">
<g id="Logo social">
<rect y="0.5" width="60" height="60" rx="30" fill="white"/>
<path id="Vector" d="M34.2066 20.5002H25.8182C22.1746 20.5002 20.0024 22.6702 20.0024 26.3102V34.6802C20.0024 38.3302 22.1746 40.5002 25.8182 40.5002H34.1966C37.8402 40.5002 40.0124 38.3302 40.0124 34.6902V26.3102C40.0224 22.6702 37.8502 20.5002 34.2066 20.5002ZM30.0124 34.3802C27.8703 34.3802 26.1285 32.6402 26.1285 30.5002C26.1285 28.3602 27.8703 26.6202 30.0124 26.6202C32.1545 26.6202 33.8963 28.3602 33.8963 30.5002C33.8963 32.6402 32.1545 34.3802 30.0124 34.3802ZM35.9383 25.3802C35.8883 25.5002 35.8182 25.6102 35.7281 25.7102C35.628 25.8002 35.5179 25.8702 35.3978 25.9202C35.2777 25.9702 35.1475 26.0002 35.0174 26.0002C34.7471 26.0002 34.4969 25.9002 34.3067 25.7102C34.2166 25.6102 34.1465 25.5002 34.0965 25.3802C34.0464 25.2602 34.0164 25.1302 34.0164 25.0002C34.0164 24.8702 34.0464 24.7402 34.0965 24.6202C34.1465 24.4902 34.2166 24.3902 34.3067 24.2902C34.5369 24.0602 34.8873 23.9502 35.2076 24.0202C35.2777 24.0302 35.3377 24.0502 35.3978 24.0802C35.4578 24.1002 35.5179 24.1302 35.578 24.1702C35.628 24.2002 35.6781 24.2502 35.7281 24.2902C35.8182 24.3902 35.8883 24.4902 35.9383 24.6202C35.9884 24.7402 36.0184 24.8702 36.0184 25.0002C36.0184 25.1302 35.9884 25.2602 35.9383 25.3802Z" fill="#80D0F4"/>
</g>
</svg>
