<svg width="29" height="28" viewBox="0 0 29 28" fill="none" xmlns="http://www.w3.org/2000/svg">
<path id="Vector" d="M20.5858 0H8.4287C3.14807 0 0 3.038 0 8.134V19.852C0 24.962 3.14807 28 8.4287 28H20.5713C25.8519 28 29 24.962 29 19.866V8.134C29.0145 3.038 25.8664 0 20.5858 0ZM14.5072 19.432C11.4027 19.432 8.87842 16.996 8.87842 14C8.87842 11.004 11.4027 8.568 14.5072 8.568C17.6118 8.568 20.136 11.004 20.136 14C20.136 16.996 17.6118 19.432 14.5072 19.432ZM23.0955 6.832C23.023 7 22.9214 7.154 22.7909 7.294C22.6458 7.42 22.4862 7.518 22.3121 7.588C22.138 7.658 21.9494 7.7 21.7608 7.7C21.3691 7.7 21.0065 7.56 20.7308 7.294C20.6003 7.154 20.4987 7 20.4262 6.832C20.3536 6.664 20.3101 6.482 20.3101 6.3C20.3101 6.118 20.3536 5.936 20.4262 5.768C20.4987 5.586 20.6003 5.446 20.7308 5.306C21.0645 4.984 21.5723 4.83 22.0365 4.928C22.138 4.942 22.2251 4.97 22.3121 5.012C22.3992 5.04 22.4862 5.082 22.5732 5.138C22.6458 5.18 22.7183 5.25 22.7909 5.306C22.9214 5.446 23.023 5.586 23.0955 5.768C23.168 5.936 23.2116 6.118 23.2116 6.3C23.2116 6.482 23.168 6.664 23.0955 6.832Z" fill="#01C0DA"/>
</svg>
