<svg xmlns="http://www.w3.org/2000/svg" width="98" height="54" viewBox="0 0 98 54" fill="none">
  <g clip-path="url(#clip0_3682_4061)">
    <path d="M97.0987 50.9821L83.7061 33.8352C91.8401 32.3774 98 25.4236 98 17.0661C98 7.64499 90.1702 0.00012125 80.5211 0.00012125H66.1333C65.3425 0.00012125 64.7066 0.626396 64.7066 1.39844C64.7066 2.17049 65.3425 2.79676 66.1333 2.79676H80.5211C88.5943 2.79676 95.1357 9.19448 95.1357 17.0715C95.1357 24.9485 89.0532 31.2437 81.0575 31.3193C81.0298 31.3247 81.0022 31.3247 80.9746 31.3247H80.9524C80.9524 31.3247 80.9193 31.3247 80.9027 31.3247C80.6428 31.3409 80.3829 31.4326 80.1617 31.6C79.5313 32.0643 79.4152 32.9443 79.8908 33.5544L93.6648 51.1873H82.5615L67.571 31.9941H67.5654V22.6648H80.5211C83.6951 22.6648 86.2663 20.1543 86.2663 17.0607C86.2663 13.9671 83.6951 11.4512 80.5211 11.4512H66.8466C65.6633 11.4512 64.7066 12.3906 64.7066 13.546V51.1873H55.6659V1.40384C55.6659 1.30666 55.6548 1.20948 55.6327 1.1177C55.5774 0.842353 55.4391 0.599401 55.2401 0.410439C55.0521 0.226876 54.6816 0.0973018 54.3443 0.0379137C54.3332 0.0379137 54.3167 0.0379137 54.3056 0.0325148C54.1895 0.016318 54.0789 0.00552017 53.9849 0.00552017C53.9019 0.00552017 53.8245 0.0109191 53.7416 0.0217169C53.6918 0.0271158 53.6365 0.0325148 53.5868 0.0433126C53.548 0.0541105 53.5149 0.0595094 53.4817 0.0703072C53.4319 0.081105 53.3766 0.0973018 53.3269 0.113499C53.266 0.135094 53.2107 0.162089 53.1499 0.189083C53.0891 0.216078 53.0393 0.248472 52.9896 0.280865C52.9453 0.30786 52.9066 0.329455 52.8679 0.361849C52.8071 0.40504 52.7518 0.448232 52.6965 0.502221C52.6357 0.55621 52.5638 0.610199 52.514 0.680385L33.8187 26.2821H33.8131L15.1178 0.685784C14.8579 0.334854 14.4432 0.113499 13.9897 0.0433126C13.9566 0.0379137 13.9234 0.0325148 13.8847 0.0271159C13.7962 0.0109191 13.7022 0.00552017 13.6027 0.00552017C13.5584 0.00552017 13.5142 0.016318 13.47 0.016318C13.4257 0.016318 13.3815 0.00552017 13.3317 0.00552017C12.541 0.00552017 11.9051 0.631795 11.9051 1.40384V51.1981H2.8643V1.47943C2.8643 0.723577 2.2837 0.0433126 1.50956 0.00012125C0.685663 -0.0376712 0 0.6048 0 1.40384V52.2131C0 53.2011 0.823901 54.0001 1.83581 54.0001H2.8643L12.8617 53.9947C13.9123 53.9947 15.2947 53.1579 15.2947 52.1267L15.2726 51.1981H15.2947V28.7656L20.0667 35.3037L21.9301 37.852L23.6498 40.2113L25.6239 42.9107L28.4937 46.8358L31.9828 51.6192C32.1874 51.8999 32.4694 52.1159 32.7902 52.2617C32.862 52.2941 32.9339 52.3211 33.0113 52.348H33.0169C33.0169 52.348 33.0666 52.3696 33.0943 52.375C33.1551 52.3966 33.2159 52.4128 33.2768 52.4236C33.3486 52.4398 33.4205 52.4506 33.4979 52.456C33.509 52.456 33.5201 52.456 33.5311 52.456C34.3495 52.5478 35.1955 52.2347 35.6545 51.6084L39.1436 46.8304L42.0079 42.9053L43.9819 40.2059L45.7072 37.8412L47.5651 35.2983L52.2984 28.8142V51.1927H52.3205L52.2984 52.2023C52.2984 53.1903 53.6255 53.9947 54.6374 53.9947H55.6659V53.9839H65.6633C66.7194 53.9839 67.571 53.1471 67.571 52.1213V36.594L80.7202 53.4224L80.7313 53.4386C80.9137 53.7626 81.2787 53.9839 81.6879 53.9839H95.5559C96.5513 53.9839 97.353 53.1957 97.353 52.2239V51.5922C97.353 51.5274 97.3364 51.468 97.3088 51.414C97.2756 51.2575 97.2093 51.1117 97.1042 50.9767L97.0987 50.9821ZM67.5654 14.2533H80.5211C82.1192 14.2533 83.4075 15.5112 83.4075 17.0661C83.4075 18.621 82.1136 19.8789 80.5211 19.8789H67.5654V14.2533ZM52.2928 23.426L45.8067 32.3073L42.8207 36.3996L42.0079 37.5118L40.0394 40.2113L33.8076 48.7362L27.5813 40.2113L25.6128 37.5172L24.8 36.405L21.814 32.3073L15.2892 23.372V6.32226L31.8391 28.9869L32.1985 29.4782L33.4316 31.1681L33.8076 31.6864L34.1891 31.1627L35.4222 29.4782L35.7816 28.9869L52.2928 6.37625V23.426Z" fill="url(#paint0_linear_3682_4061)"/>
  </g>
  <defs>
    <linearGradient id="paint0_linear_3682_4061" x1="49" y1="-0.00146484" x2="49" y2="54.0001" gradientUnits="userSpaceOnUse">
      <stop stop-color="#6259F8"/>
      <stop offset="1" stop-color="#8647E8"/>
    </linearGradient>
    <clipPath id="clip0_3682_4061">
      <rect width="98" height="54" fill="white"/>
    </clipPath>
  </defs>
</svg>