<svg width="351" height="32" viewBox="0 0 351 32" fill="none" xmlns="http://www.w3.org/2000/svg">
<g clip-path="url(#clip0_3729_305)">
<path d="M40.1287 0.235727C40.2812 0.0825046 40.4806 0 40.7035 0C40.9263 0 41.1258 0.0825046 41.2782 0.235727C41.4425 0.400737 41.5246 0.601105 41.5246 0.825046V31.175C41.5246 31.3989 41.4425 31.5993 41.2782 31.7643C41.1258 31.9175 40.9263 32 40.7035 32H33.8296C33.6068 32 33.4191 31.9175 33.2549 31.7643C33.1024 31.5993 33.0202 31.3989 33.0202 31.175V15.9587L21.4192 31.6818C21.255 31.9057 21.0321 32.0118 20.7623 32.0118C20.7036 32.0118 20.6333 32.0118 20.5629 31.9764C20.4925 32 20.4221 32.0118 20.3635 32.0118C19.9998 32.0118 19.7418 31.8468 19.601 31.5168L8.50433 16.0177V31.175C8.50433 31.3989 8.42222 31.5993 8.26972 31.7643C8.1055 31.9175 7.90609 32 7.68322 32H0.821107C0.598235 32 0.398824 31.9175 0.234602 31.7643C0.0821107 31.5993 0 31.3989 0 31.175V0.825046C0 0.601105 0.0821107 0.400737 0.234602 0.235727C0.398824 0.0825046 0.598235 0 0.821107 0C1.04398 0 1.24339 0.0825046 1.39588 0.235727C1.5601 0.400737 1.64221 0.601105 1.64221 0.825046V30.3381H6.85038V0.860405C6.85038 0.801473 6.85038 0.730755 6.86211 0.660037C6.86211 0.660037 6.86211 0.660037 6.87384 0.648251C6.87384 0.601105 6.8973 0.553959 6.90903 0.5186H6.92076V0.483241C6.92076 0.483241 6.96768 0.400737 6.97941 0.377164C6.97941 0.377164 6.97941 0.377164 7.0146 0.341805C7.03806 0.294659 7.06152 0.271087 7.09671 0.247514C7.07325 0.247514 7.09671 0.247514 7.1319 0.212155L7.19056 0.153223C7.19056 0.153223 7.19055 0.153223 7.20228 0.141436C7.20228 0.141436 7.20228 0.141436 7.24921 0.12965C7.29613 0.094291 7.33132 0.0825046 7.34305 0.0707182C7.31959 0.0707182 7.34305 0.0707182 7.38997 0.0589319C7.43689 0.0589319 7.47208 0.0353591 7.49554 0.0235727C7.47208 0.0235727 7.49554 0.0235727 7.54246 0.0235727C7.58938 0.0235727 7.6363 0.0117864 7.67149 0.0117864C7.67149 0.0117864 7.67149 0.0117864 7.73014 0.0117864C7.77706 0.0117864 7.80052 0.0235727 7.82398 0.0235727C7.82398 0.0235727 7.85917 0.0235727 7.90609 0.0589319H7.96474C7.96474 0.0589319 8.02339 0.106077 8.05858 0.117864C8.1055 0.117864 8.11723 0.12965 8.1055 0.12965C8.14069 0.153223 8.16415 0.176796 8.19934 0.212155C8.24626 0.247514 8.24626 0.2593 8.23453 0.247514C8.28146 0.282873 8.31665 0.318232 8.34011 0.353591V0.38895L20.7506 17.8446L33.161 0.377164C33.161 0.377164 33.1727 0.377164 33.1727 0.365378L33.1845 0.353591C33.2197 0.306446 33.2431 0.271087 33.2783 0.247514L33.3135 0.212155C33.3135 0.212155 33.3839 0.153223 33.4073 0.12965H33.4543C33.4543 0.12965 33.5246 0.0825046 33.5481 0.0707182C33.5481 0.0707182 33.5833 0.0707182 33.6068 0.0353591C33.6537 0.0353591 33.6771 0.0235727 33.7006 0.0235727C33.7006 0.0235727 33.7475 0.0235727 33.7944 0.0117864C33.8414 0.0117864 33.8531 0.0117864 33.8414 0.0117864H33.8531C33.8531 0.0117864 33.9235 0.0117864 33.9587 0.0235727C34.0173 0.0235727 34.0408 0.0235727 34.0056 0.0235727C34.0408 0.0235727 34.076 0.0471455 34.1346 0.0589319C34.1815 0.0825046 34.1815 0.0825046 34.1698 0.0707182C34.1933 0.0707182 34.2167 0.106077 34.2636 0.12965C34.3106 0.12965 34.3223 0.141436 34.3106 0.141436C34.334 0.165009 34.334 0.165009 34.3223 0.153223C34.3223 0.153223 34.3575 0.176796 34.4044 0.212155C34.4513 0.2593 34.4513 0.2593 34.4396 0.247514C34.4631 0.271087 34.4865 0.294659 34.5217 0.341805C34.5452 0.377164 34.5452 0.38895 34.5334 0.377164C34.5569 0.412523 34.5804 0.447882 34.5921 0.483241H34.6038V0.5186C34.6038 0.5186 34.639 0.589319 34.6507 0.648251C34.6507 0.671823 34.6507 0.671823 34.6507 0.660037C34.6742 0.730755 34.6742 0.801473 34.6625 0.860405V30.3499H39.8706V0.825046C39.8706 0.601105 39.9527 0.400737 40.117 0.235727H40.1287ZM32.9851 13.2243C32.9851 13.2243 32.9851 13.2243 33.0202 13.189V3.40626L21.4309 19.7422C21.4309 19.7422 21.4309 19.7068 21.3957 19.754C21.3723 19.8011 21.3488 19.8365 21.3136 19.86L21.255 19.8954C21.255 19.8954 21.1963 19.9543 21.2198 19.9308C21.1963 19.9543 21.1728 19.9779 21.1259 19.9897C21.079 20.025 21.0203 20.0368 20.95 20.0486C20.95 20.0486 20.9265 20.0486 20.9148 20.0604C20.8561 20.0604 20.7975 20.0722 20.7388 20.0722C20.6802 20.0722 20.6333 20.0722 20.5629 20.0604C20.5629 20.0604 20.5394 20.0486 20.5277 20.0486C20.469 20.0486 20.4104 20.0133 20.3517 19.9897C20.3517 19.9897 20.2696 19.9425 20.2462 19.9308C20.2931 19.9661 20.2814 19.9543 20.211 19.8954C20.211 19.8954 20.1875 19.8954 20.1641 19.86C20.1289 19.8247 20.1054 19.7893 20.0702 19.754C20.0233 19.7068 20.0233 19.695 20.0585 19.7422L8.50433 3.40626V13.189C8.50433 13.189 8.55125 13.2479 8.53952 13.2243L20.5746 30.0553L32.9851 13.2243Z" fill="#8648E9"/>
<path d="M84.3981 30.8803C84.5154 31.1514 84.4919 31.4107 84.316 31.6464C84.1518 31.8821 83.9172 32.0118 83.6356 32.0118H76.3278C75.9524 32.0118 75.6944 31.835 75.5653 31.4932L73.278 25.7532H62.2986L60.0112 31.4932C59.8704 31.835 59.6241 32.0118 59.2487 32.0118H51.9292C51.6359 32.0118 51.413 31.8939 51.2605 31.6582C51.0963 31.4225 51.0611 31.1632 51.1667 30.8921L63.2956 0.5186C63.4247 0.176796 63.6827 0 64.0581 0H71.5184C71.8938 0 72.1401 0.176796 72.2809 0.5186L79.0961 17.5853C79.0961 17.5853 79.0961 17.5853 79.1078 17.6442C79.1313 17.6913 79.143 17.7267 79.143 17.7385C79.143 17.7621 79.143 17.7974 79.1547 17.8446C79.1547 17.8917 79.1547 17.9153 79.1547 17.8917C79.1547 17.8917 79.1547 17.9624 79.143 18.0214C79.1313 18.0803 79.143 18.0921 79.143 18.0685L79.1078 18.1274C79.0609 18.2689 79.0022 18.3985 78.9084 18.481C78.9084 18.481 78.8967 18.481 78.8967 18.4928C78.8498 18.5282 78.8146 18.5518 78.7911 18.5753H78.7794C78.7794 18.5753 78.6973 18.646 78.6504 18.6578C78.6973 18.6343 78.6855 18.646 78.6152 18.6696C78.5682 18.6696 78.5213 18.6932 78.4861 18.705H78.3336L64.5508 18.7168C64.5038 18.7168 64.4452 18.7168 64.3983 18.705C64.3983 18.705 64.3631 18.705 64.3162 18.6932L64.234 18.6578C64.234 18.6578 64.1754 18.6343 64.1285 18.6107C64.0816 18.5753 64.0698 18.5635 64.0816 18.5753L64.0229 18.5282L63.9643 18.481C63.9643 18.481 63.9643 18.481 63.9291 18.4339C63.8939 18.3867 63.8821 18.3632 63.8704 18.3514C63.8704 18.3514 63.847 18.3042 63.8235 18.2571C63.8 18.2099 63.7883 18.1982 63.7883 18.2099V18.151C63.7883 18.151 63.7414 18.0685 63.7414 18.0567C63.7414 18.0567 63.7414 18.0567 63.7414 18.0096C63.7414 17.9624 63.7297 17.9153 63.7297 17.9035C63.7297 17.9035 63.7297 17.9035 63.7297 17.8446C63.7297 17.7974 63.7414 17.7503 63.7414 17.7385C63.7414 17.7385 63.7414 17.6913 63.7766 17.6442C63.7766 17.5971 63.7883 17.5735 63.7883 17.5853L67.0258 9.48803C67.1548 9.14622 67.4129 8.96943 67.7883 8.96943C68.1636 8.96943 68.41 9.14622 68.5507 9.48803L71.5654 17.0667H77.1137L70.9554 1.66188H64.5977L53.1491 30.3499H58.6857L60.9848 24.5982C61.149 24.1856 61.454 24.0088 61.888 24.0913H81.1371C81.4656 24.0913 81.7119 24.2328 81.8527 24.5274L81.8879 24.5864H81.8996L84.3864 30.8685L84.3981 30.8803ZM65.7707 17.0667H69.8176L67.8 11.9985L65.7824 17.0667H65.7707ZM82.4274 30.3499L80.5975 25.7532H75.0492L76.8791 30.3499H82.4274Z" fill="#8648E9"/>
<path d="M117.149 30.5503C117.36 30.8214 117.383 31.116 117.231 31.4225C117.09 31.7289 116.844 31.8703 116.503 31.8703H107.976C107.706 31.8703 107.483 31.7643 107.319 31.5403L99.8349 21.628V31.1632C99.8349 31.3871 99.7528 31.5875 99.5886 31.7525C99.4361 31.9057 99.2367 31.9882 99.0138 31.9882H92.269C92.0461 31.9882 91.8467 31.9057 91.6825 31.7525C91.53 31.5875 91.4479 31.3871 91.4479 31.1632V19.3768C91.4479 19.1529 91.53 18.9525 91.6825 18.7993C91.8467 18.6343 92.0461 18.5517 92.269 18.5517H107.119C107.201 18.5282 107.272 18.5164 107.342 18.5164C109.665 18.5164 111.647 17.6913 113.278 16.053C114.932 14.3912 115.753 12.411 115.753 10.0891C115.753 7.76722 114.932 5.76354 113.278 4.11344C111.635 2.46335 109.665 1.65009 107.342 1.65009H93.0901V11.7746H98.1927V7.60221C98.1927 7.37827 98.2748 7.1779 98.439 7.02468C98.5915 6.85967 98.7909 6.77716 99.0138 6.77716H107.319C108.234 6.78895 109.008 7.11897 109.653 7.76722C110.298 8.42726 110.615 9.20516 110.615 10.1127C110.615 11.0203 110.31 11.7628 109.7 12.3993C109.102 13.0357 108.363 13.3775 107.495 13.4365C107.436 13.4365 107.377 13.4482 107.319 13.4482H92.269C92.0461 13.4482 91.8467 13.3657 91.6825 13.2007C91.53 13.0475 91.4479 12.8471 91.4479 12.6232V0.825046C91.4479 0.601105 91.53 0.400737 91.6825 0.235727C91.8467 0.0825046 92.0461 0 92.269 0H107.342C110.11 0 112.48 0.978269 114.451 2.95838C116.41 4.93849 117.395 7.31934 117.395 10.1009C117.395 12.5643 116.609 14.7212 115.025 16.607C113.454 18.4692 111.483 19.6125 109.125 20.0486L117.149 30.5621V30.5503ZM93.0901 30.3499H98.1927V20.2254H93.0901V30.3499ZM99.8349 11.7864H107.319C107.776 11.7746 108.163 11.6096 108.48 11.2913C108.797 10.9731 108.961 10.5842 108.961 10.1245C108.961 9.66482 108.797 9.27587 108.48 8.95764C108.163 8.63941 107.764 8.4744 107.319 8.4744H99.8349V11.7982V11.7864ZM114.838 30.232L107.319 20.3904C107.319 20.3904 107.248 20.2961 107.225 20.2372H100.832L108.398 30.2438H114.838V30.232Z" fill="#8648E9"/>
<path d="M155.881 0.12965C156.268 0.12965 156.527 0.306446 156.656 0.671823C156.785 1.0372 156.702 1.34365 156.409 1.57937L140.386 14.8508L155.952 30.5974C156.21 30.8567 156.268 31.1514 156.128 31.4932C155.987 31.835 155.741 32.0118 155.365 32.0118H145.911C145.688 32.0118 145.488 31.9293 145.336 31.7761L135.201 21.7223V31.175C135.201 31.3989 135.119 31.5993 134.967 31.7643C134.802 31.9175 134.603 32 134.392 32H127.6C127.377 32 127.178 31.9175 127.014 31.7643C126.861 31.5993 126.779 31.3989 126.779 31.175V24.3624C126.779 24.3624 126.779 24.3978 126.779 24.3271C126.779 24.2917 126.779 24.2681 126.791 24.2328C126.791 24.1974 126.791 24.1738 126.802 24.1503C126.802 24.1267 126.802 24.1031 126.814 24.0678C126.814 24.0442 126.838 24.0206 126.849 24.0088C126.849 23.9853 126.873 23.9617 126.896 23.9263C126.896 23.891 126.92 23.8792 126.931 23.8674C126.955 23.8438 126.978 23.8203 126.99 23.8085C127.014 23.7849 127.037 23.7613 127.049 23.7495C127.084 23.7142 127.084 23.7024 127.06 23.7142L153.582 1.77974H146.579L128.104 16.9017C128.104 16.9017 128.14 16.8781 128.069 16.9134C128.046 16.937 128.022 16.9488 128.011 16.9606C127.975 16.9842 127.952 16.9959 127.929 17.0077C127.905 17.0195 127.882 17.0313 127.846 17.0431C127.823 17.0431 127.799 17.0549 127.764 17.0549C127.764 17.0549 127.729 17.0667 127.706 17.0667C127.67 17.0667 127.647 17.0785 127.612 17.0785C127.553 17.0785 127.541 17.0785 127.577 17.0785C127.624 17.0785 127.612 17.0785 127.53 17.0785C127.506 17.0785 127.483 17.0667 127.448 17.0667C127.412 17.0667 127.389 17.0667 127.365 17.0549C127.342 17.0549 127.319 17.0431 127.283 17.0431C127.248 17.0431 127.225 17.0195 127.201 17.0077C127.178 16.9959 127.154 16.9842 127.143 16.9606C127.107 16.9606 127.084 16.937 127.06 16.9134C127.06 16.9134 127.037 16.8899 127.014 16.8663C126.978 16.8427 126.967 16.8192 126.955 16.8074C126.908 16.7602 126.908 16.7602 126.92 16.772C126.92 16.7956 126.92 16.7838 126.908 16.7602C126.885 16.7366 126.873 16.7131 126.861 16.6777C126.838 16.6424 126.826 16.6188 126.814 16.5952C126.814 16.5952 126.791 16.5599 126.779 16.5363C126.767 16.5127 126.767 16.4773 126.767 16.4538C126.767 16.4302 126.755 16.4066 126.755 16.3713C126.755 16.3359 126.744 16.3123 126.744 16.277C126.744 16.2298 126.744 16.218 126.744 16.2416V0.836832C126.744 0.601105 126.826 0.400737 126.978 0.235727C127.143 0.0825046 127.342 0 127.565 0H134.357C134.579 0 134.767 0.0825046 134.931 0.235727C135.084 0.400737 135.166 0.601105 135.166 0.825046V8.96943L145.77 0.318232C145.922 0.188582 146.098 0.12965 146.298 0.12965H155.881ZM128.421 1.67366V14.5326L133.559 10.3249V1.67366H128.421ZM133.559 30.3499V20.5083L128.421 24.7632V30.3617H133.559V30.3499ZM139.131 15.9116L135.072 19.2589L146.274 30.3499H153.43L139.142 15.9116H139.131Z" fill="#8648E9"/>
<path d="M172.104 8.43904V11.7864H182.133C182.356 11.7864 182.556 11.8689 182.72 12.0221C182.872 12.1871 182.955 12.3875 182.955 12.6114V19.3886C182.955 19.6125 182.872 19.8129 182.72 19.9779C182.556 20.1311 182.356 20.2136 182.133 20.2136H172.104V23.561H188.843C189.066 23.561 189.265 23.6435 189.43 23.7967C189.582 23.9617 189.664 24.1621 189.664 24.386V31.1632C189.664 31.3871 189.582 31.5875 189.43 31.7525C189.265 31.9057 189.066 31.9882 188.843 31.9882H164.538C164.315 31.9882 164.116 31.9057 163.952 31.7525C163.799 31.5875 163.717 31.3871 163.717 31.1632V19.3768C163.717 19.1529 163.799 18.9525 163.952 18.7993C164.116 18.6343 164.315 18.5517 164.538 18.5517H181.324V13.4247H164.538C164.315 13.4247 164.116 13.3422 163.952 13.1772C163.799 13.0239 163.717 12.8236 163.717 12.5996V0.825046C163.717 0.601105 163.799 0.400737 163.952 0.235727C164.116 0.0825046 164.315 0 164.538 0H188.843C189.066 0 189.265 0.0825046 189.43 0.235727C189.582 0.400737 189.664 0.601105 189.664 0.825046V7.60221C189.664 7.82615 189.582 8.02652 189.43 8.19153C189.265 8.34475 189.066 8.42726 188.843 8.42726H172.104V8.43904ZM170.45 11.7864V7.614C170.45 7.39006 170.532 7.18969 170.697 7.03646C170.849 6.87145 171.048 6.78895 171.271 6.78895H188.01V1.66188H165.348V11.7864H170.45ZM171.271 25.2228C171.048 25.2228 170.849 25.1403 170.697 24.9753C170.532 24.8221 170.45 24.6217 170.45 24.3978V20.2254H165.348V30.3499H188.01V25.2228H171.271Z" fill="#8648E9"/>
<path d="M231.681 0C231.904 0 232.104 0.0825046 232.256 0.235727C232.42 0.400737 232.502 0.601105 232.502 0.825046V7.63757C232.502 7.86151 232.42 8.05009 232.256 8.2151C232.104 8.36832 231.904 8.45083 231.681 8.45083H219.986V31.175C219.986 31.3989 219.904 31.5993 219.74 31.7643C219.588 31.9175 219.388 32 219.165 32H212.385C212.162 32 211.963 31.9175 211.811 31.7643C211.646 31.5993 211.564 31.3989 211.564 31.175V8.45083H199.869C199.646 8.45083 199.447 8.36832 199.283 8.2151C199.13 8.05009 199.048 7.86151 199.048 7.63757V0.825046C199.048 0.601105 199.13 0.400737 199.283 0.235727C199.447 0.0825046 199.646 0 199.869 0H212.385C212.608 0 212.808 0.0825046 212.96 0.235727C213.124 0.400737 213.206 0.601105 213.206 0.825046V30.3381H218.344V0.825046C218.344 0.601105 218.426 0.400737 218.591 0.235727C218.743 0.0825046 218.942 0 219.165 0L231.681 0ZM200.69 6.80074H211.564V1.66188H200.69V6.80074ZM230.86 1.66188H219.986V6.80074H230.86V1.66188Z" fill="#8648E9"/>
<path d="M272.596 30.5503C272.807 30.8214 272.831 31.116 272.678 31.4225C272.537 31.7289 272.291 31.8703 271.951 31.8703H263.423C263.153 31.8703 262.93 31.7643 262.766 31.5403L255.282 21.628V31.1632C255.282 31.3871 255.2 31.5875 255.036 31.7525C254.883 31.9057 254.684 31.9882 254.461 31.9882H247.716C247.493 31.9882 247.294 31.9057 247.13 31.7525C246.977 31.5875 246.895 31.3871 246.895 31.1632V19.3768C246.895 19.1529 246.977 18.9525 247.13 18.7993C247.294 18.6343 247.493 18.5517 247.716 18.5517H262.567C262.649 18.5282 262.719 18.5164 262.79 18.5164C265.112 18.5164 267.095 17.6913 268.725 16.053C270.379 14.3912 271.2 12.411 271.2 10.0891C271.2 7.76722 270.379 5.76354 268.725 4.11344C267.083 2.46335 265.112 1.65009 262.79 1.65009H248.537V11.7746H253.64V7.60221C253.64 7.37827 253.722 7.1779 253.886 7.02468C254.039 6.85967 254.238 6.77716 254.461 6.77716H262.766C263.681 6.78895 264.455 7.11897 265.1 7.76722C265.746 8.42726 266.062 9.20516 266.062 10.1127C266.062 11.0203 265.757 11.7628 265.147 12.3993C264.549 13.0357 263.81 13.3775 262.942 13.4365C262.883 13.4365 262.825 13.4482 262.766 13.4482H247.716C247.493 13.4482 247.294 13.3657 247.13 13.2007C246.977 13.0475 246.895 12.8471 246.895 12.6232V0.825046C246.895 0.601105 246.977 0.400737 247.13 0.235727C247.294 0.0825046 247.493 0 247.716 0H262.79C265.558 0 267.927 0.978269 269.898 2.95838C271.857 4.93849 272.842 7.31934 272.842 10.1009C272.842 12.5643 272.056 14.7212 270.473 16.607C268.901 18.4692 266.93 19.6125 264.573 20.0486L272.596 30.5621V30.5503ZM248.537 30.3499H253.64V20.2254H248.537V30.3499ZM255.282 11.7864H262.766C263.224 11.7746 263.611 11.6096 263.927 11.2913C264.244 10.9731 264.408 10.5842 264.408 10.1245C264.408 9.66482 264.244 9.27587 263.927 8.95764C263.611 8.63941 263.212 8.4744 262.766 8.4744H255.282V11.7982V11.7864ZM270.285 30.232L262.766 20.3904C262.766 20.3904 262.696 20.2961 262.672 20.2372H256.279L263.845 30.2438H270.285V30.232Z" fill="#8648E9"/>
<path d="M290.625 8.43904V11.7864H300.654C300.877 11.7864 301.077 11.8689 301.241 12.0221C301.393 12.1871 301.475 12.3875 301.475 12.6114V19.3886C301.475 19.6125 301.393 19.8129 301.241 19.9779C301.077 20.1311 300.877 20.2136 300.654 20.2136H290.625V23.561H307.364C307.587 23.561 307.786 23.6435 307.95 23.7967C308.103 23.9617 308.185 24.1621 308.185 24.386V31.1632C308.185 31.3871 308.103 31.5875 307.95 31.7525C307.786 31.9057 307.587 31.9882 307.364 31.9882H283.059C282.836 31.9882 282.637 31.9057 282.473 31.7525C282.32 31.5875 282.238 31.3871 282.238 31.1632V19.3768C282.238 19.1529 282.32 18.9525 282.473 18.7993C282.637 18.6343 282.836 18.5517 283.059 18.5517H299.845V13.4247H283.059C282.836 13.4247 282.637 13.3422 282.473 13.1772C282.32 13.0239 282.238 12.8236 282.238 12.5996V0.825046C282.238 0.601105 282.32 0.400737 282.473 0.235727C282.637 0.0825046 282.836 0 283.059 0H307.364C307.587 0 307.786 0.0825046 307.95 0.235727C308.103 0.400737 308.185 0.601105 308.185 0.825046V7.60221C308.185 7.82615 308.103 8.02652 307.95 8.19153C307.786 8.34475 307.587 8.42726 307.364 8.42726H290.625V8.43904ZM288.971 11.7864V7.614C288.971 7.39006 289.053 7.18969 289.217 7.03646C289.37 6.87145 289.569 6.78895 289.792 6.78895H306.531V1.66188H283.869V11.7864H288.971ZM289.792 25.2228C289.569 25.2228 289.37 25.1403 289.217 24.9753C289.053 24.8221 288.971 24.6217 288.971 24.3978V20.2254H283.869V30.3499H306.531V25.2228H289.792Z" fill="#8648E9"/>
<path d="M350.179 0C350.472 0 350.695 0.117864 350.859 0.353591C351.012 0.589319 351.035 0.848619 350.941 1.11971L338.824 31.4814C338.683 31.8232 338.437 32 338.062 32C337.956 32 337.851 31.9764 337.745 31.9411C337.534 31.8586 337.393 31.7171 337.299 31.505C337.217 31.2928 337.217 31.0925 337.299 30.8803L348.959 1.66188H343.411L331.446 31.4932C331.305 31.835 331.047 32.0118 330.683 32.0118C330.683 32.0118 330.683 32.0118 330.625 32.0118C330.238 32.0354 329.98 31.8586 329.827 31.4932L317.698 1.13149C317.593 0.860405 317.628 0.601105 317.792 0.365378C317.945 0.12965 318.167 0.0117864 318.461 0.0117864H325.78C326.156 0.0117864 326.402 0.188582 326.543 0.530387L334.308 19.9897L342.097 0.530387C342.226 0.188582 342.484 0.0117864 342.859 0.0117864H350.167L350.179 0ZM333.428 22.1702L325.229 1.65009H319.681L330.648 29.0888L333.428 22.1702Z" fill="#8648E9"/>
</g>
<defs>
<clipPath id="clip0_3729_305">
<rect width="351" height="32" fill="white"/>
</clipPath>
</defs>
</svg>
