<svg width="93" height="81" viewBox="0 0 93 81" fill="none" xmlns="http://www.w3.org/2000/svg">
<g id="Artboard 2" clip-path="url(#clip0_71_309)">
<path id="Vector" d="M0 41.7709C0.0499241 41.4606 0.156904 41.1461 0.136935 40.8401C0.0927161 40.1698 0.329499 39.7101 0.961395 39.4611C1.56619 39.222 1.69742 38.7837 1.74021 38.1404C1.92279 35.3468 2.9227 32.8193 4.60728 30.5977C6.56288 28.019 9.17462 26.3468 12.3327 25.6622C16.8501 24.6831 21.0851 25.3705 24.8508 28.0844C19.2108 33.713 13.5808 39.3316 7.91225 44.9886C7.14913 43.88 6.72406 42.5536 6.5586 41.129C6.38172 39.6162 6.5586 38.1546 7.08637 36.7173C7.33884 36.027 7.02218 35.4378 6.42594 35.2272C5.82971 35.0166 5.27626 35.2429 4.99669 35.9559C4.73566 36.6205 4.54452 37.3264 4.42898 38.0308C4.02673 40.4872 4.37906 42.8325 5.61004 45.0171C5.90816 45.5451 6.27046 46.0375 6.66558 46.6423C6.23908 47.0408 5.79262 47.5403 5.26628 47.9288C4.62297 48.4042 4.54452 48.9734 4.70285 49.6907C5.46027 53.1475 6.69125 56.3937 8.85083 59.2429C11.3399 62.5275 14.3396 65.2272 17.9299 67.2837C19.7086 68.3027 21.5743 69.0811 23.5314 69.6717C23.7738 69.7443 24.0106 69.9934 24.1504 70.2211C25.1546 71.8733 26.1317 73.5413 27.0717 75.1252C23.3488 74.5773 19.7386 73.1855 16.2909 71.314C13.2213 69.649 10.5012 67.5342 8.12764 64.9881C4.38048 60.972 1.86431 56.2927 0.734597 50.9089C0.462154 49.611 0.339484 48.2818 0.141214 46.9682C0.129803 46.8885 0.0513505 46.8188 0.00570561 46.7448C0.00570561 45.0868 0.00570561 43.4303 0.00570561 41.7723L0 41.7709Z" fill="#B1B1B1"/>
<path id="Vector_2" d="M29.1942 0C29.9487 0.0967742 30.7104 0.150854 31.455 0.298861C32.8871 0.582068 34.3064 0.923624 35.7342 1.22818C35.961 1.27657 36.2021 1.26945 36.4374 1.27514C38.1734 1.31499 39.2603 2.42078 39.6968 3.824C40.1832 5.38378 39.4857 7.11575 38.1919 7.85579C36.6828 8.71964 35.0139 8.57448 33.9084 7.3093C33.3949 6.72296 33.1738 5.88757 32.7887 5.18169C32.6646 4.95399 32.4692 4.63378 32.2666 4.60104C28.9588 4.07021 25.641 3.73719 22.3503 4.69639C20.5402 5.22438 19.0852 6.22059 18.335 8.04364C17.626 9.76566 17.9213 11.435 18.5803 13.0844C19.5531 15.5209 21.0893 17.6058 22.7254 19.6267C23.0521 20.0294 23.3901 20.4222 23.7196 20.8136C22.7354 21.7429 21.7441 22.6793 20.65 23.7125C20.0723 23.0308 19.3819 22.2751 18.7586 21.4682C16.8486 18.9962 15.2668 16.3392 14.3268 13.3392C13.3511 10.2196 13.6663 7.26233 15.6376 4.61243C17.2523 2.44213 19.4661 1.11717 22.1263 0.582068C23.2889 0.348672 24.4656 0.192125 25.6339 0C26.8206 0 28.0074 0 29.1942 0Z" fill="#B1B1B1"/>
<path id="Vector_3" d="M58.9586 0C59.5434 0.0967742 60.1254 0.213473 60.7116 0.28463C63.8212 0.666034 66.5541 1.83017 68.6424 4.22106C69.785 5.52894 70.3997 7.1001 70.6379 8.83492C71.1457 12.5351 69.6338 15.6632 67.778 18.6404C66.7282 20.3226 65.3774 21.8169 64.1664 23.4009C64.0665 23.5318 64.0066 23.6926 64.0237 23.6599C62.9739 22.5925 62.0225 21.6219 61.1524 20.7367C62.3291 19.0417 63.7013 17.1817 64.9423 15.2405C65.8595 13.806 66.6497 12.2576 66.7453 10.5185C66.8366 8.87049 66.3388 7.37903 65.0621 6.22486C63.5587 4.86575 61.7201 4.40323 59.7688 4.26233C58.7104 4.18691 57.6434 4.08302 56.5879 4.13567C55.1615 4.20541 53.7408 4.40892 52.3187 4.56547C52.186 4.5797 52.0619 4.67647 51.9506 4.7277C52.002 6.04127 51.4942 7.09013 50.4287 7.7889C49.1934 8.59867 47.8611 8.64137 46.5788 7.87571C45.2038 7.05455 44.666 5.40085 45.1524 3.68169C45.4848 2.51044 46.9739 1.2296 48.4645 1.26091C49.0836 1.27372 49.7012 0.963473 50.3302 0.865275C51.992 0.606262 53.6609 0.384251 55.3255 0.140892C55.4011 0.129507 55.4681 0.0498103 55.538 0.0028463C56.6777 0.0028463 57.816 0.0028463 58.9557 0.0028463L58.9586 0Z" fill="#B1B1B1"/>
<path id="Vector_4" d="M48.5058 70.9668C49.4871 71.9801 50.3743 72.807 51.1503 73.7277C51.7594 74.4507 52.4997 74.5389 53.3199 74.4393C54.247 74.3269 54.6621 74.6556 54.6807 75.5907C54.7049 76.8686 53.4597 78.0427 52.096 78.148C50.1276 78.3003 48.7012 77.3183 47.4017 76.0461C45.8612 74.5375 44.3435 73.0076 42.7588 71.4308C42.0085 72.1993 41.2839 72.9777 40.5165 73.7135C40.1741 74.0423 40.3253 74.3027 40.5165 74.5731C41.2825 75.6518 41.7746 76.8387 42.0798 78.1281C42.5434 80.0835 41.2653 81.3544 39.2955 80.9118C36.912 80.3753 34.9278 79.1115 33.2076 77.4806C31.4317 75.7956 29.7101 74.0295 28.1567 72.1424C26.7203 70.3962 25.5107 68.4422 25.1227 66.1466C24.836 64.4531 25.7204 63.5337 27.3708 63.686C29.2836 63.8639 30.9239 64.7704 32.3617 66.0342C32.4316 66.0954 32.503 66.1537 32.6114 66.2448C33.4273 65.3852 34.2318 64.5356 35.0705 63.6504C34.9079 63.4725 34.7581 63.2975 34.5955 63.1352C32.8852 61.426 31.1664 59.7254 29.4647 58.0091C28.4563 56.9915 27.7873 55.8459 27.9042 54.3188C28.0155 52.8587 29.2037 51.7458 30.6629 51.8568C31.2877 51.9037 31.6699 52.2353 31.5929 52.8387C31.4702 53.7937 31.8768 54.4256 32.5557 55.0261C33.3887 55.7619 34.1504 56.5774 34.8123 57.2292C36.718 55.4118 38.6351 53.5902 40.5436 51.7614C40.8331 51.4839 41.0799 51.1637 41.3652 50.8805C46.2463 46.0062 51.1389 41.1447 56.0101 36.2619C59.5204 32.7424 62.9966 29.1903 66.4998 25.6651C68.4554 23.6969 71.7832 23.2088 74.1625 24.7173C74.7045 25.0617 74.9969 24.9863 75.3863 24.5223C75.9027 23.9075 76.4946 23.3539 77.0709 22.7904C77.9011 21.9763 78.707 22.0119 79.4929 22.8857C79.841 23.2714 80.1804 23.6656 80.5784 24.1196C81.4984 23.2472 82.417 22.4075 83.3 21.5337C85.7092 19.1499 88.1041 16.7519 90.5019 14.3582C90.6688 14.1917 90.8157 14.0067 90.9697 13.8274C91.4176 13.3065 92.0995 13.214 92.5916 13.6096C93.1122 14.0266 93.1507 14.6571 92.6115 15.2107C91.5047 16.3492 90.3721 17.4635 89.2367 18.5721C86.8332 20.9189 84.4211 23.2572 82.0448 25.5669C82.5697 26.1831 83.0675 26.7183 83.5054 27.2989C83.9162 27.844 83.8648 28.3933 83.3456 28.8715C82.5882 29.5688 81.8308 30.269 81.0391 31.0005C81.8864 32.2145 82.4099 33.5992 82.3001 35.1533C82.1931 36.659 81.7566 38.0978 80.6825 39.1751C76.8555 43.0147 72.9728 46.7989 69.1087 50.6016C69.0602 50.6485 68.996 50.6784 68.7535 50.8862C68.6708 50.7154 68.6266 50.5076 68.5011 50.3795C65.0777 46.9014 61.6472 43.4289 58.2124 39.9621C57.5877 39.3316 56.796 39.3131 56.2183 39.8824C55.6335 40.4573 55.6478 41.2358 56.2711 41.8705C59.0283 44.6741 61.7927 47.4692 64.5457 50.2771C65.3558 51.1039 66.1304 51.9649 66.7551 52.6324C62.737 56.8321 58.7345 61.0162 54.6921 65.2415C54.3512 64.9227 54.1614 64.7562 53.9831 64.5783C50.7267 61.3321 47.4716 58.0845 44.2151 54.8383C43.3507 53.9758 41.9529 54.3459 41.6433 55.5356C41.5963 55.7192 41.6861 56.0138 41.8202 56.1561C43.0212 57.4298 44.238 58.6907 45.4661 59.9388C47.4431 61.9483 49.4301 63.9479 51.4185 65.9445C51.7822 66.3103 52.1759 66.6461 52.5268 66.9678C51.1589 68.3283 49.8209 69.659 48.5029 70.9697L48.5058 70.9668ZM49.6283 67.1898C46.205 63.9137 42.6932 60.5536 39.4467 57.4469C38.6593 58.0973 37.8092 58.8003 36.8463 59.5959C40.3396 63.0427 43.7516 66.4099 47.2947 69.9066C48.0265 69.0541 48.734 68.2315 49.6283 67.1898ZM70.4666 25.52C70.4253 25.594 70.3825 25.668 70.3411 25.742C73.6903 29.1063 77.0409 32.4706 80.4244 35.8705C80.8323 33.9891 80.3973 32.4009 79.0736 31.0717C77.4746 29.4649 75.877 27.8568 74.2452 26.2828C73.9599 26.0081 73.5249 25.7989 73.1326 25.7391C72.2525 25.6054 71.3567 25.5854 70.4666 25.52ZM34.2888 67.4801C35.7994 69.0399 37.2586 70.5555 38.7363 72.0527C38.8148 72.1324 39.12 72.1295 39.1971 72.0484C39.8746 71.3397 40.525 70.6054 41.1541 69.9109C39.5722 68.3369 38.0317 66.8027 36.5268 65.3055C35.8079 66.0057 35.0633 66.7287 34.2902 67.4801H34.2888ZM61.8041 52.4915C61.8041 52.4915 61.8084 52.2467 61.6857 52.1101C60.8912 51.2349 60.0938 50.361 59.2466 49.5356C58.8272 49.1258 58.1183 49.2126 57.7118 49.6153C57.2824 50.0408 57.2339 50.7439 57.6447 51.1936C58.3779 51.9962 59.1025 52.8117 59.9013 53.5461C60.1566 53.7809 60.663 53.9146 61.0053 53.8492C61.5431 53.7453 61.8669 53.3127 61.8041 52.4915ZM54.8632 52.6922C54.4938 52.9569 54.0288 53.1333 53.8562 53.4621C53.6936 53.7723 53.6793 54.3686 53.879 54.6205C54.5337 55.4488 55.2854 56.2088 56.0543 56.9374C56.6049 57.4597 57.3166 57.4298 57.7545 56.9773C58.2809 56.4322 58.2609 55.8046 57.6604 55.1813C56.9871 54.4839 56.2982 53.8022 55.5978 53.1319C55.4281 52.9697 55.187 52.8829 54.8632 52.6936V52.6922ZM53.3869 61.0219C53.7563 60.7216 54.0773 60.5238 54.3141 60.2534C54.6307 59.8933 54.5936 59.4279 54.3041 59.0992C53.5238 58.214 52.7122 57.353 51.8678 56.5276C51.4641 56.1333 50.7723 56.2543 50.353 56.6912C49.8651 57.2007 49.8437 57.7401 50.3073 58.2353C50.9378 58.9085 51.5568 59.5944 52.2215 60.232C52.5225 60.5223 52.9205 60.7116 53.3869 61.0233V61.0219Z" fill="#B1B1B1"/>
<path id="Vector_5" d="M8.50293 51.8624C15.0316 45.2462 21.5131 38.6769 28.076 32.0251C29.1244 33.4284 29.8148 34.9597 30.1557 36.5849C30.9231 40.2424 30.5294 43.7917 28.5339 47.018C24.1463 54.1139 14.906 55.5427 8.50293 51.8624Z" fill="#B1B1B1"/>
<path id="Vector_6" d="M24.6094 26.0607C25.2299 25.3904 25.819 24.7557 26.4922 24.0299C26.9501 24.5095 27.3466 24.9407 27.7603 25.3563C29.452 27.0498 31.1166 28.7718 32.8511 30.4213C34.9765 32.4421 37.4384 33.9222 40.3797 34.3577C44.1069 34.9085 47.5887 34.2069 50.4044 31.5868C52.8607 29.3013 55.1387 26.825 57.4937 24.4327C57.6263 24.2975 57.7518 24.1566 58.0286 23.8591C58.9186 24.908 59.7902 25.9042 60.6203 26.9331C60.8214 27.1822 60.8428 27.4739 60.5248 27.7913C58.7147 29.5973 56.9716 31.4716 55.1444 33.2605C53.397 34.9697 51.4985 36.5209 49.2063 37.4474C47.7257 38.0465 46.1666 38.4478 44.569 38.9616C44.569 40.3961 44.5776 41.9331 44.5605 43.4687C44.5576 43.7078 44.5105 44.0138 44.3593 44.1718C43.0342 45.5536 41.682 46.9099 40.1957 48.417V39.0441C38.357 38.4123 36.614 37.8572 34.9094 37.2069C34.1777 36.9279 33.4944 36.4867 32.844 36.0413C32.5958 35.8719 32.4204 35.5033 32.3448 35.1931C31.8997 33.3715 31.0852 31.7576 29.8956 30.2975C28.4592 28.5342 26.6634 27.2448 24.6108 26.0636L24.6094 26.0607Z" fill="#B1B1B1"/>
<path id="Vector_7" d="M54.7343 68.5901C54.9611 68.3283 55.0866 68.1689 55.2278 68.0223C56.6257 66.5778 57.9694 65.0749 59.45 63.7215C60.0534 63.1693 60.932 62.8861 61.7222 62.5773C64.722 61.4075 67.1411 59.4905 69.2251 57.0683C70.9425 55.073 72.1407 52.8302 73.0051 50.3581C73.1891 49.8302 73.908 49.49 74.373 49.0574C75.7452 47.7837 77.1131 46.5071 78.3783 45.3287C77.2829 58.2709 66.9828 68.2016 54.7314 68.5901H54.7343Z" fill="#B1B1B1"/>
</g>
<defs>
<clipPath id="clip0_71_309">
<rect width="93" height="81" fill="white"/>
</clipPath>
</defs>
</svg>
