<svg width="141" height="140" viewBox="0 0 141 140" fill="none" xmlns="http://www.w3.org/2000/svg">
<g filter="url(#filter0_d_71_432)">
<ellipse cx="70.1616" cy="64" rx="59.9722" ry="60" fill="#4FA6D1" fill-opacity="0.4"/>
<ellipse cx="70.1614" cy="64.0001" rx="43.3645" ry="43.3846" fill="#01C0DA"/>
<path d="M63.43 42.3574L91.7832 58.7555C92.7044 59.2884 93.4693 60.0547 94.0011 60.9775C94.5329 61.9002 94.8128 62.9469 94.8128 64.0123C94.8128 65.0777 94.5329 66.1244 94.0011 67.0472C93.4693 67.9699 92.7044 68.7362 91.7832 69.2691L63.43 85.6423C62.5086 86.1744 61.4638 86.4542 60.4003 86.4539C59.3367 86.4535 58.2921 86.1729 57.3711 85.6403C56.4501 85.1076 55.6853 84.3416 55.1534 83.4193C54.6215 82.4969 54.3413 81.4506 54.3408 80.3855V47.6143C54.3413 46.5491 54.6215 45.5028 55.1534 44.5805C55.6853 43.6581 56.4501 42.8922 57.3711 42.3595C58.2921 41.8269 59.3367 41.5463 60.4003 41.5459C61.4638 41.5455 62.5086 41.8254 63.43 42.3574Z" fill="white"/>
</g>
<defs>
<filter id="filter0_d_71_432" x="0.189453" y="0" width="139.944" height="140" filterUnits="userSpaceOnUse" color-interpolation-filters="sRGB">
<feFlood flood-opacity="0" result="BackgroundImageFix"/>
<feColorMatrix in="SourceAlpha" type="matrix" values="0 0 0 0 0 0 0 0 0 0 0 0 0 0 0 0 0 0 127 0" result="hardAlpha"/>
<feOffset dy="6"/>
<feGaussianBlur stdDeviation="5"/>
<feColorMatrix type="matrix" values="0 0 0 0 0.47451 0 0 0 0 0.388235 0 0 0 0 0.407843 0 0 0 0.14 0"/>
<feBlend mode="normal" in2="BackgroundImageFix" result="effect1_dropShadow_71_432"/>
<feBlend mode="normal" in="SourceGraphic" in2="effect1_dropShadow_71_432" result="shape"/>
</filter>
</defs>
</svg>
