<svg width="136" height="29" viewBox="0 0 136 29" fill="none" xmlns="http://www.w3.org/2000/svg">
<g id="Social">
<path id="Discord" d="M131.55 5.13948C129.701 4.29537 127.719 3.67348 125.647 3.31729C125.609 3.31042 125.571 3.32759 125.552 3.36195C125.297 3.8132 125.015 4.40188 124.817 4.86459C122.588 4.53246 120.37 4.53246 118.187 4.86459C117.989 4.3916 117.697 3.8132 117.441 3.36195C117.421 3.32874 117.384 3.31156 117.346 3.31729C115.275 3.67234 113.292 4.29424 111.443 5.13948C111.427 5.14635 111.413 5.15781 111.404 5.17269C107.645 10.7629 106.615 16.2158 107.12 21.601C107.122 21.6274 107.137 21.6526 107.158 21.6686C109.638 23.4816 112.041 24.5822 114.399 25.3118C114.437 25.3232 114.477 25.3095 114.501 25.2786C115.059 24.5204 115.556 23.721 115.982 22.8803C116.007 22.8311 115.983 22.7726 115.932 22.7532C115.143 22.4554 114.392 22.0923 113.67 21.68C113.613 21.6468 113.608 21.5655 113.661 21.5265C113.813 21.4132 113.965 21.2952 114.11 21.1761C114.136 21.1543 114.173 21.1497 114.204 21.1635C118.95 23.3201 124.088 23.3201 128.778 21.1635C128.809 21.1486 128.845 21.1532 128.873 21.1749C129.018 21.294 129.17 21.4132 129.323 21.5265C129.376 21.5655 129.372 21.6468 129.315 21.68C128.593 22.1003 127.842 22.4554 127.052 22.752C127 22.7715 126.977 22.8311 127.003 22.8803C127.438 23.7198 127.935 24.5192 128.483 25.2774C128.506 25.3095 128.547 25.3232 128.585 25.3118C130.954 24.5822 133.357 23.4816 135.837 21.6686C135.859 21.6526 135.873 21.6285 135.875 21.6022C136.48 15.3762 134.862 9.9681 131.587 5.17383C131.579 5.15781 131.566 5.14635 131.55 5.13948ZM116.691 18.322C115.262 18.322 114.085 17.0163 114.085 15.4129C114.085 13.8095 115.239 12.5038 116.691 12.5038C118.154 12.5038 119.32 13.8209 119.297 15.4129C119.297 17.0163 118.143 18.322 116.691 18.322ZM126.327 18.322C124.898 18.322 123.721 17.0163 123.721 15.4129C123.721 13.8095 124.875 12.5038 126.327 12.5038C127.79 12.5038 128.956 13.8209 128.933 15.4129C128.933 17.0163 127.79 18.322 126.327 18.322Z" fill="#8648E9"/>
<g id="Instgram">
<path id="Vector" d="M68.0001 2.57796C71.8251 2.57796 72.2781 2.59474 73.7824 2.66184C75.1804 2.72336 75.9353 2.95822 76.4386 3.15395C77.1041 3.41118 77.585 3.72434 78.0827 4.22204C78.586 4.72533 78.8935 5.20066 79.1508 5.86612C79.3465 6.36941 79.5814 7.12993 79.6429 8.52237C79.71 10.0322 79.7268 10.4852 79.7268 14.3046C79.7268 18.1296 79.71 18.5826 79.6429 20.0868C79.5814 21.4849 79.3465 22.2398 79.1508 22.7431C78.8935 23.4086 78.5804 23.8895 78.0827 24.3872C77.5794 24.8905 77.1041 25.198 76.4386 25.4553C75.9353 25.651 75.1748 25.8859 73.7824 25.9474C72.2725 26.0145 71.8195 26.0312 68.0001 26.0312C64.1751 26.0312 63.7222 26.0145 62.2179 25.9474C60.8199 25.8859 60.0649 25.651 59.5616 25.4553C58.8962 25.198 58.4152 24.8849 57.9176 24.3872C57.4143 23.8839 57.1067 23.4086 56.8495 22.7431C56.6537 22.2398 56.4189 21.4793 56.3574 20.0868C56.2902 18.577 56.2735 18.124 56.2735 14.3046C56.2735 10.4796 56.2902 10.0266 56.3574 8.52237C56.4189 7.12434 56.6537 6.36941 56.8495 5.86612C57.1067 5.20066 57.4199 4.71974 57.9176 4.22204C58.4208 3.71875 58.8962 3.41118 59.5616 3.15395C60.0649 2.95822 60.8254 2.72336 62.2179 2.66184C63.7222 2.59474 64.1751 2.57796 68.0001 2.57796ZM68.0001 0C64.1136 0 63.6271 0.0167763 62.1004 0.0838816C60.5794 0.150987 59.5337 0.397039 58.6277 0.749342C57.6827 1.11842 56.883 1.60493 56.0889 2.40461C55.2893 3.19868 54.8027 3.99836 54.4337 4.93783C54.0814 5.84934 53.8353 6.88947 53.7682 8.41053C53.7011 9.94276 53.6843 10.4293 53.6843 14.3158C53.6843 18.2023 53.7011 18.6888 53.7682 20.2155C53.8353 21.7365 54.0814 22.7822 54.4337 23.6882C54.8027 24.6332 55.2893 25.4329 56.0889 26.227C56.883 27.0211 57.6827 27.5132 58.6222 27.8766C59.5337 28.2289 60.5738 28.475 62.0949 28.5421C63.6215 28.6092 64.108 28.626 67.9945 28.626C71.881 28.626 72.3676 28.6092 73.8942 28.5421C75.4152 28.475 76.461 28.2289 77.3669 27.8766C78.3064 27.5132 79.106 27.0211 79.9001 26.227C80.6942 25.4329 81.1863 24.6332 81.5498 23.6938C81.9021 22.7822 82.1481 21.7421 82.2152 20.2211C82.2824 18.6944 82.2991 18.2079 82.2991 14.3214C82.2991 10.4349 82.2824 9.94836 82.2152 8.42171C82.1481 6.90066 81.9021 5.85493 81.5498 4.94901C81.1975 3.99836 80.711 3.19868 79.9113 2.40461C79.1172 1.61053 78.3176 1.11842 77.3781 0.754934C76.4666 0.402632 75.4264 0.156579 73.9054 0.0894737C72.3731 0.0167763 71.8866 0 68.0001 0Z" fill="#8648E9"/>
<path id="Vector_2" d="M68.0001 6.96216C63.9402 6.96216 60.6465 10.2559 60.6465 14.3158C60.6465 18.3756 63.9402 21.6694 68.0001 21.6694C72.06 21.6694 75.3537 18.3756 75.3537 14.3158C75.3537 10.2559 72.06 6.96216 68.0001 6.96216ZM68.0001 19.0858C65.3662 19.0858 63.23 16.9497 63.23 14.3158C63.23 11.6819 65.3662 9.54571 68.0001 9.54571C70.634 9.54571 72.7702 11.6819 72.7702 14.3158C72.7702 16.9497 70.634 19.0858 68.0001 19.0858Z" fill="#8648E9"/>
<path id="Vector_3" d="M77.3613 6.67137C77.3613 7.62203 76.5896 8.38815 75.6445 8.38815C74.6939 8.38815 73.9277 7.61644 73.9277 6.67137C73.9277 5.72071 74.6994 4.95459 75.6445 4.95459C76.5896 4.95459 77.3613 5.7263 77.3613 6.67137Z" fill="#8648E9"/>
</g>
<g id="Facebook">
<path id="Vector_4" d="M28.6316 14.3158C28.6316 6.40939 22.2222 0 14.3158 0C6.40939 0 0 6.40939 0 14.3158C0 21.4611 5.23505 27.3837 12.0789 28.4577V18.4539H8.44408V14.3158H12.0789V11.1618C12.0789 7.57395 14.2162 5.59211 17.4862 5.59211C19.052 5.59211 20.6908 5.87171 20.6908 5.87171V9.39474H18.8857C17.1074 9.39474 16.5526 10.4983 16.5526 11.6316V14.3158H20.523L19.8883 18.4539H16.5526V28.4577C23.3965 27.3837 28.6316 21.4611 28.6316 14.3158Z" fill="#8648E9"/>
<path id="Vector_5" d="M19.8883 18.4539L20.523 14.3157H16.5526V11.6315C16.5526 10.4994 17.1074 9.39467 18.8857 9.39467H20.6908V5.87165C20.6908 5.87165 19.0526 5.59204 17.4862 5.59204C14.2163 5.59204 12.079 7.57388 12.079 11.1618V14.3157H8.44409V18.4539H12.079V28.4576C13.5612 28.6895 15.0704 28.6895 16.5526 28.4576V18.4539H19.8883Z" fill="#F5F7F8"/>
</g>
</g>
</svg>
