<svg width="60" height="61" viewBox="0 0 60 61" fill="none" xmlns="http://www.w3.org/2000/svg">
<g id="Logo social">
<rect y="0.5" width="60" height="60" rx="30" fill="white"/>
<path id="Vector" d="M37 25.9205C36.448 26.1605 35.8555 26.3255 35.233 26.3975C35.869 26.0225 36.355 25.4285 36.586 24.722C35.9799 25.0752 35.3187 25.3237 34.63 25.457C34.3403 25.1534 33.9918 24.9119 33.6058 24.7474C33.2197 24.5829 32.8042 24.4987 32.3845 24.5C30.685 24.5 29.308 25.8575 29.308 27.53C29.308 27.767 29.335 27.998 29.3875 28.22C28.1685 28.1621 26.9749 27.8508 25.883 27.3058C24.791 26.7609 23.8246 25.9943 23.0455 25.055C22.7718 25.5157 22.6278 26.0417 22.6285 26.5775C22.6285 27.6275 23.173 28.5575 23.998 29.099C23.5097 29.0837 23.0318 28.9537 22.603 28.7195V28.757C22.6076 29.4612 22.8562 30.142 23.3064 30.6835C23.7566 31.2251 24.3805 31.5938 25.072 31.727C24.618 31.847 24.143 31.8645 23.6815 31.778C23.8827 32.3838 24.2675 32.9119 24.7825 33.2891C25.2976 33.6662 25.9172 33.8736 26.5555 33.8825C25.4604 34.7263 24.116 35.1822 22.7335 35.1785C22.486 35.1785 22.2415 35.1635 22 35.1365C23.4107 36.0294 25.0464 36.5024 26.716 36.5C32.377 36.5 35.4715 31.883 35.4715 27.878L35.461 27.485C36.0644 27.0609 36.5859 26.5308 37 25.9205Z" fill="#80D0F4"/>
<path id="Vector_2" d="M30 39.5C32.3869 39.5 34.6761 38.5518 36.364 36.864C38.0518 35.1761 39 32.8869 39 30.5C39 28.1131 38.0518 25.8239 36.364 24.136C34.6761 22.4482 32.3869 21.5 30 21.5C27.6131 21.5 25.3239 22.4482 23.636 24.136C21.9482 25.8239 21 28.1131 21 30.5C21 32.8869 21.9482 35.1761 23.636 36.864C25.3239 38.5518 27.6131 39.5 30 39.5ZM30 41.75C23.7866 41.75 18.75 36.7134 18.75 30.5C18.75 24.2866 23.7866 19.25 30 19.25C36.2134 19.25 41.25 24.2866 41.25 30.5C41.25 36.7134 36.2134 41.75 30 41.75Z" fill="#80D0F4"/>
</g>
</svg>
