<svg width="31" height="25" viewBox="0 0 31 25" fill="none" xmlns="http://www.w3.org/2000/svg">
<path id="Vector" d="M31 2.9594C29.8592 3.4594 28.6347 3.80315 27.3482 3.95315C28.6626 3.1719 29.667 1.9344 30.1444 0.46253C28.8919 1.19836 27.5253 1.71603 26.102 1.99378C25.5033 1.3612 24.7831 0.858178 23.9852 0.5154C23.1874 0.172621 22.3286 -0.00273289 21.4613 3.21985e-05C17.949 3.21985e-05 15.1032 2.82815 15.1032 6.31252C15.1032 6.80627 15.159 7.28752 15.2675 7.75001C12.7482 7.62942 10.2815 6.98078 8.02481 5.84548C5.7681 4.71018 3.77092 3.11315 2.1607 1.15628C1.59514 2.11597 1.29738 3.21189 1.2989 4.32815C1.2989 6.51564 2.4242 8.45314 4.1292 9.58126C3.11998 9.54936 2.13237 9.27852 1.2462 8.79064V8.86876C1.25578 10.3358 1.76948 11.7542 2.69984 12.8824C3.63021 14.0105 4.91971 14.7788 6.3488 15.0563C5.41061 15.3063 4.42894 15.3426 3.4751 15.1625C3.89089 16.4246 4.68619 17.5249 5.75057 18.3105C6.81495 19.0962 8.0956 19.5283 9.4147 19.5469C7.15158 21.3049 4.37298 22.2547 1.5159 22.2469C1.0044 22.2469 0.4991 22.2156 0 22.1594C2.91546 24.0196 6.29598 25.0049 9.7464 25C21.4458 25 27.8411 15.3813 27.8411 7.03752L27.8194 6.21877C29.0665 5.33527 30.1442 4.23091 31 2.9594Z" fill="#01C0DA"/>
</svg>
