<svg width="80" height="80" viewBox="0 0 80 80" fill="none" xmlns="http://www.w3.org/2000/svg">
<g id="Logo social">
<rect width="80" height="80" rx="40" fill="#5AB8E7"/>
<rect width="80" height="80" rx="40" fill="black" fill-opacity="0.5"/>
<path id="Vector" d="M47 35.4205C46.448 35.6605 45.8555 35.8255 45.233 35.8975C45.869 35.5225 46.355 34.9285 46.586 34.222C45.9799 34.5752 45.3187 34.8237 44.63 34.957C44.3403 34.6534 43.9918 34.4119 43.6058 34.2474C43.2197 34.0829 42.8042 33.9987 42.3845 34C40.685 34 39.308 35.3575 39.308 37.03C39.308 37.267 39.335 37.498 39.3875 37.72C38.1685 37.6621 36.9749 37.3508 35.883 36.8058C34.791 36.2609 33.8246 35.4943 33.0455 34.555C32.7718 35.0157 32.6278 35.5417 32.6285 36.0775C32.6285 37.1275 33.173 38.0575 33.998 38.599C33.5097 38.5837 33.0318 38.4537 32.603 38.2195V38.257C32.6076 38.9612 32.8562 39.642 33.3064 40.1835C33.7566 40.7251 34.3805 41.0938 35.072 41.227C34.618 41.347 34.143 41.3645 33.6815 41.278C33.8827 41.8838 34.2675 42.4119 34.7825 42.7891C35.2976 43.1662 35.9172 43.3736 36.5555 43.3825C35.4604 44.2263 34.116 44.6822 32.7335 44.6785C32.486 44.6785 32.2415 44.6635 32 44.6365C33.4107 45.5294 35.0464 46.0024 36.716 46C42.377 46 45.4715 41.383 45.4715 37.378L45.461 36.985C46.0644 36.5609 46.5859 36.0308 47 35.4205Z" fill="#01C0DA"/>
<path id="Vector_2" d="M40 52C43.1826 52 46.2348 50.7357 48.4853 48.4853C50.7357 46.2348 52 43.1826 52 40C52 36.8174 50.7357 33.7652 48.4853 31.5147C46.2348 29.2643 43.1826 28 40 28C36.8174 28 33.7652 29.2643 31.5147 31.5147C29.2643 33.7652 28 36.8174 28 40C28 43.1826 29.2643 46.2348 31.5147 48.4853C33.7652 50.7357 36.8174 52 40 52ZM40 55C31.7155 55 25 48.2845 25 40C25 31.7155 31.7155 25 40 25C48.2845 25 55 31.7155 55 40C55 48.2845 48.2845 55 40 55Z" fill="#01C0DA"/>
</g>
</svg>
