<svg width="300" height="301" viewBox="0 0 300 301" fill="none" xmlns="http://www.w3.org/2000/svg">
<rect x="0.000976562" y="0.5" width="300" height="300" rx="10" fill="#D9D9D9"/>
<path fill-rule="evenodd" clip-rule="evenodd" d="M177.001 150.5C177.001 165.412 164.913 177.5 150.001 177.5C135.089 177.5 123.001 165.412 123.001 150.5C123.001 135.588 135.089 123.5 150.001 123.5C164.913 123.5 177.001 135.588 177.001 150.5ZM180.001 150.5C180.001 167.069 166.57 180.5 150.001 180.5C133.432 180.5 120.001 167.069 120.001 150.5C120.001 133.931 133.432 120.5 150.001 120.5C166.57 120.5 180.001 133.931 180.001 150.5ZM143.997 161.645L161.981 151.368C162.653 150.984 162.653 150.016 161.981 149.632L143.997 139.355C143.33 138.974 142.501 139.455 142.501 140.223L142.501 160.777C142.501 161.545 143.33 162.026 143.997 161.645Z" fill="white"/>
</svg>
