<svg width="60" height="61" viewBox="0 0 60 61" fill="none" xmlns="http://www.w3.org/2000/svg">
<g id="Logo social">
<rect y="0.5" width="60" height="60" rx="30" fill="white"/>
<path id="Vector" d="M42.75 27.3761C42.75 25.8177 42.1787 24.3231 41.1617 23.2211C40.1448 22.1191 38.7655 21.5 37.3273 21.5H23.4228C21.9846 21.5 20.6052 22.1191 19.5883 23.2211C18.5713 24.3231 18 25.8177 18 27.3761V34.3571C18 35.9171 18.5708 37.4135 19.5873 38.5181C20.6039 39.6228 21.9831 40.2456 23.4228 40.25H37.3273C38.7669 40.2456 40.1461 39.6228 41.1627 38.5181C42.1792 37.4135 42.75 35.9171 42.75 34.3571V27.3761ZM34.5927 31.394L28.4129 34.7422C28.1657 34.8929 27.3315 34.7422 27.3315 34.3906V27.5435C27.3315 27.2422 28.1657 27.058 28.4129 27.2087L34.3764 30.7076C34.5927 30.8583 34.9017 31.1763 34.5927 31.394Z" fill="#80D0F4"/>
</g>
</svg>
