<svg width="38" height="28" viewBox="0 0 38 28" fill="none" xmlns="http://www.w3.org/2000/svg">
<path id="Vector" d="M38 8.77501C38 6.44773 37.1228 4.21577 35.5614 2.57013C34 0.924502 31.8824 0 29.6742 0H8.32587C6.11772 0 3.99996 0.924502 2.43856 2.57013C0.877162 4.21577 0 6.44773 0 8.77501V19.2C-8.91952e-06 21.5296 0.876393 23.7641 2.43711 25.4137C3.99784 27.0633 6.11554 27.9934 8.32587 28H29.6742C31.8845 27.9934 34.0022 27.0633 35.5629 25.4137C37.1236 23.7641 38 21.5296 38 19.2V8.77501ZM25.4757 14.775L15.9875 19.775C15.608 20 14.3271 19.775 14.3271 19.25V9.025C14.3271 8.575 15.608 8.29999 15.9875 8.52499L25.1436 13.75C25.4757 13.975 25.9501 14.45 25.4757 14.775Z" fill="#01C0DA"/>
</svg>
