<svg width="80" height="80" viewBox="0 0 80 80" fill="none" xmlns="http://www.w3.org/2000/svg">
<g id="Logo social">
<rect width="80" height="80" rx="40" fill="#5AB8E7"/>
<rect width="80" height="80" rx="40" fill="black" fill-opacity="0.5"/>
<path id="Vector" d="M57 35.8348C57 33.7569 56.2383 31.7641 54.8823 30.2948C53.5264 28.8254 51.6873 28 49.7697 28H31.2304C29.3128 28 27.4737 28.8254 26.1177 30.2948C24.7617 31.7641 24 33.7569 24 35.8348V45.1429C24 47.2228 24.7611 49.218 26.1164 50.6908C27.4718 52.1637 29.3109 52.9941 31.2304 53H49.7697C51.6892 52.9941 53.5282 52.1637 54.8836 50.6908C56.2389 49.218 57 47.2228 57 45.1429V35.8348ZM46.1236 41.192L37.8839 45.6562C37.5543 45.8571 36.442 45.6562 36.442 45.1875V36.058C36.442 35.6563 37.5543 35.4107 37.8839 35.6116L45.8352 40.2768C46.1236 40.4777 46.5356 40.9018 46.1236 41.192Z" fill="#01C0DA"/>
</g>
</svg>
